PathFileType	4	(X/Y/Z)	./resultDataOpenSim/trcMotMarkerGrf/sub09/qtm-01-05.trc
DataRate	CameraRate	NumFrames	NumMarkers	Units	OrigDataRate	OrigDataStartFrame	OrigNumFrames
250.000000	250.000000	8	24	m	250.000000	291	465
Frame#	Time	L.Toe.Tip			R.Toe.Tip			L.Ankle.Lat			R.Ankle.Lat			L.Ankle.Med			R.Ankle.Med			L.Heel			R.Heel			L.Knee.Lat			R.Knee.Lat			L.Knee.Med			R.Knee.Med			L.Thigh.Upper			R.Thigh.Upper			L.ASIS			R.ASIS			V.Sacral			L.Acromium			R.Acromium			C7			L.Elbow			R.Elbow			L.Wrist.Lat			R.Wrist.Lat
		X1	Y1	Z1	X2	Y2	Z2	X3	Y3	Z3	X4	Y4	Z4	X5	Y5	Z5	X6	Y6	Z6	X7	Y7	Z7	X8	Y8	Z8	X9	Y9	Z9	X10	Y10	Z10	X11	Y11	Z11	X12	Y12	Z12	X13	Y13	Z13	X14	Y14	Z14	X15	Y15	Z15	X16	Y16	Z16	X17	Y17	Z17	X18	Y18	Z18	X19	Y19	Z19	X20	Y20	Z20	X21	Y21	Z21	X22	Y22	Z22	X23	Y23	Z23	X24	Y24	Z24

291	1.16	0.20990083	0.040301306	0.055566177	1.0424594	0.081801421	0.15730467	0.1033052	0.13813987	-0.0064455819	0.89421264	0.05718238	0.18359537	0.12486379	0.14979341	0.090287577	0.89976887	0.100421	0.094067462	0.022913381	0.14645928	0.032752604	0.83937135	0.020278847	0.12980914	0.38106219	0.45681643	-0.045303422	0.79377439	0.50589559	0.2394398	0.3784551	0.45623773	0.080499953	0.79190217	0.49131407	0.11419472	0.52702201	0.84530312	-0.078095738	0.57766705	0.84699701	0.29063394	0.63715444	0.91908568	-0.033816314	0.65378112	0.93354689	0.20960004	0.48057469	0.97945276	0.099096374	0.6405725	1.379335	-0.065041943	0.58112175	1.3921663	0.26067826	0.54570276	1.434375	0.08807374	0.52982248	1.0216003	-0.14177322	0.40966913	1.0717756	0.32263581	0.74796086	0.86208151	-0.11310785	0.50407322	0.82771882	0.39938714
292	1.164	0.21062509	0.04042878	0.055241631	1.047921	0.075609124	0.1561429	0.10687425	0.14103016	-0.0077407073	0.89817639	0.056815598	0.18364018	0.12877295	0.15216305	0.088846802	0.90545603	0.099660543	0.093862016	0.026881097	0.15118512	0.031531949	0.84163712	0.022551827	0.12973728	0.38952236	0.45591178	-0.045604331	0.80145665	0.50485267	0.23929755	0.38690325	0.45473594	0.08030471	0.79831317	0.48944746	0.11411573	0.53515045	0.84412472	-0.077092978	0.58705444	0.8466305	0.29124076	0.64539781	0.91801926	-0.033151485	0.66211153	0.93353152	0.20991989	0.48850321	0.97892008	0.099322271	0.64728013	1.3787675	-0.064633504	0.58813126	1.3916293	0.26122628	0.5525903	1.4336974	0.08859683	0.53615648	1.0211969	-0.14127867	0.41717087	1.0711598	0.32314459	0.75376784	0.86092379	-0.11296886	0.51127692	0.82703372	0.4000531
293	1.168	0.21129749	0.040546698	0.054906743	1.0531918	0.070105591	0.15485489	0.11066583	0.14404468	-0.0090874659	0.9026664	0.05635228	0.18419587	0.13296202	0.15457764	0.087345484	0.91065065	0.098668432	0.094079105	0.031166813	0.15611055	0.030318603	0.84414586	0.024662589	0.13047198	0.39817154	0.45497716	-0.045877218	0.80918999	0.50419191	0.23927514	0.39554508	0.45321969	0.080057675	0.80467619	0.48766754	0.114111	0.54331116	0.84298113	-0.076053901	0.59649148	0.84638155	0.29185247	0.65369404	0.91701985	-0.032467484	0.67032358	0.9336195	0.21022258	0.49619482	0.97870546	0.099009371	0.65397483	1.3782665	-0.064257731	0.59515442	1.3911382	0.26178221	0.55950173	1.4331653	0.089160913	0.54250427	1.0208397	-0.14074518	0.42473398	1.070569	0.3236751	0.75952266	0.85974241	-0.11286735	0.51861908	0.8264004	0.40076095
294	1.172	0.21186392	0.040654549	0.054561147	1.0576527	0.065039648	0.15362269	0.11468725	0.1472223	-0.010495373	0.90722731	0.055625409	0.18498371	0.13745324	0.15707104	0.085800761	0.91478951	0.097517771	0.094606133	0.03580355	0.16127362	0.029154873	0.84658939	0.026420466	0.13177771	0.40695528	0.4540126	-0.046127117	0.81714126	0.50408457	0.23938422	0.4043748	0.45168266	0.079753853	0.81104392	0.48619581	0.11421384	0.55150332	0.84189415	-0.075074999	0.60590929	0.84631763	0.29247397	0.66186075	0.91611219	-0.031698017	0.67841703	0.93379699	0.21055296	0.5037171	0.97868962	0.098572428	0.66065713	1.3778497	-0.063912605	0.60218057	1.3906989	0.26233669	0.56636714	1.4327945	0.089779724	0.5488715	1.0205372	-0.14016588	0.43236185	1.0699972	0.32422556	0.76521996	0.858551	-0.11280137	0.52602887	0.82580478	0.40146562
295	1.176	0.21234225	0.040781122	0.054213208	1.0612489	0.059988678	0.15258185	0.11893945	0.15057908	-0.011933898	0.91146715	0.05472196	0.18573677	0.14227997	0.15966286	0.084216886	0.9180403	0.096464606	0.095255918	0.040830101	0.16667823	0.028090029	0.84875621	0.027891887	0.1333043	0.41598296	0.45302957	-0.046459713	0.82539827	0.50458635	0.23960064	0.41343707	0.45010682	0.079382405	0.81745725	0.48523529	0.11443924	0.55971842	0.84087872	-0.074285485	0.61524849	0.84648662	0.29309807	0.66978051	0.91530944	-0.03081655	0.68640979	0.93406367	0.21094269	0.51121088	0.97867335	0.098526459	0.66733095	1.3775336	-0.06358979	0.60922168	1.3903162	0.26288314	0.57318805	1.432535	0.090416865	0.55526145	1.020304	-0.13954474	0.44004705	1.0694531	0.3248035	0.77085615	0.85736227	-0.11277172	0.53348111	0.8252468	0.40214698
296	1.18	0.21285523	0.04098593	0.0538731	1.064187	0.054849584	0.15159021	0.12343561	0.15409148	-0.013349143	0.91516996	0.053815585	0.1862475	0.14749497	0.16234387	0.082594293	0.920792	0.095690759	0.0957613	0.046279419	0.17227855	0.027155102	0.85050161	0.029188094	0.13475248	0.42540979	0.45202883	-0.047002542	0.83397665	0.50562853	0.23983066	0.42291922	0.44847866	0.078878262	0.82396088	0.48490441	0.11477198	0.56795388	0.83993454	-0.073723937	0.62444701	0.8468999	0.29371797	0.67755226	0.91460351	-0.029904835	0.69433039	0.93442396	0.21140186	0.51877324	0.97853453	0.09902575	0.67399962	1.3773205	-0.063280206	0.61630454	1.3899882	0.26341487	0.58001279	1.4322949	0.091014498	0.56166892	1.0201548	-0.13888711	0.44775957	1.0689625	0.32544168	0.77642913	0.85617847	-0.11277735	0.54097435	0.82473185	0.40279937
297	1.184	0.21356763	0.041333686	0.053548035	1.0666171	0.050063342	0.15032815	0.12821451	0.15770163	-0.014693912	0.91826169	0.053043499	0.18635646	0.1531595	0.16508588	0.080948876	0.9231547	0.095177556	0.095842161	0.052156725	0.17799656	0.026347972	0.85175548	0.030303483	0.13588225	0.43527079	0.45098513	-0.047791126	0.84284671	0.50702137	0.23994082	0.4329923	0.44675492	0.078184741	0.83057195	0.48517902	0.11516929	0.57621369	0.83904801	-0.073246505	0.633452	0.84752953	0.29433836	0.68535911	0.91397631	-0.029081091	0.70219779	0.93487045	0.21190999	0.52639368	0.97828334	0.099782334	0.68066576	1.3771981	-0.062975738	0.62345415	1.3897049	0.26392471	0.58687449	1.4320039	0.091545209	0.56808526	1.0200982	-0.13819671	0.45544613	1.0685591	0.32620261	0.78194544	0.85499484	-0.11281096	0.54851418	0.82426729	0.4034254
298	1.188	0.21458734	0.041873889	0.053239681	1.0685557	0.046327355	0.14866765	0.1333184	0.16136259	-0.015936103	0.92068243	0.052499547	0.18600144	0.15929737	0.16787646	0.079319185	0.92494379	0.094760456	0.095368479	0.058435103	0.18377197	0.025640391	0.85255704	0.031132054	0.1365001	0.44547312	0.44986876	-0.048732761	0.85193268	0.50846541	0.23984186	0.44371264	0.44486916	0.077287121	0.83726263	0.48590763	0.11556675	0.58448658	0.8382126	-0.072613744	0.64223554	0.84832896	0.29497598	0.69326024	0.91342139	-0.028371514	0.71000214	0.93538235	0.21242146	0.53404659	0.97799902	0.1004473	0.68733396	1.3771546	-0.062668136	0.63068169	1.3894622	0.26440718	0.59379057	1.4316434	0.092014292	0.57450324	1.0201425	-0.13747834	0.46306886	1.0682622	0.32712925	0.78742263	0.85381015	-0.11286529	0.55610057	0.82385903	0.40402687
